<svg width="55" height="55" viewBox="0 0 55 55" fill="none" xmlns="http://www.w3.org/2000/svg">
<path d="M27.5 0C12.3365 0 0 12.3365 0 27.5C0 42.6635 12.3365 55 27.5 55C42.6635 55 55 42.6635 55 27.5C55 12.3365 42.6635 0 27.5 0ZM27.5 49.1485C15.5631 49.1485 5.85097 39.4374 5.85097 27.5C5.85097 15.5626 15.5631 5.85153 27.5 5.85153C39.4369 5.85153 49.149 15.5626 49.149 27.5C49.149 39.4374 39.4369 49.1485 27.5 49.1485Z" fill="#2D2D46"/>
<path d="M41.8315 26.6509H29.4729V11.7914C29.4729 10.5409 28.4591 9.5271 27.2086 9.5271C25.9582 9.5271 24.9443 10.5409 24.9443 11.7914V28.9152C24.9443 30.1657 25.9582 31.1795 27.2086 31.1795H41.8315C43.082 31.1795 44.0958 30.1657 44.0958 28.9152C44.0958 27.6648 43.082 26.6509 41.8315 26.6509Z" fill="#2D2D46"/>
</svg>
