<svg width="1024" height="828" viewBox="0 0 1024 828" fill="none" xmlns="http://www.w3.org/2000/svg">
<mask id="path-1-inside-1" fill="white">
<path fill-rule="evenodd" clip-rule="evenodd" d="M1062.91 13.5967C1151.16 34.7826 1231.83 79.959 1296 144.131L1226.41 213.724C1175.07 162.386 1110.53 126.245 1039.94 109.296C969.342 92.3475 895.433 95.2514 826.384 117.687C757.335 140.122 695.835 181.215 648.683 236.423C604.959 287.617 575.153 349.099 561.994 414.946C561.183 419.873 560.299 424.783 559.341 429.673C559.296 429.952 559.252 430.231 559.207 430.51L559.177 430.505C542.831 513.194 505.493 590.41 450.616 654.663C391.677 723.672 314.802 775.038 228.49 803.083C142.179 831.127 49.793 834.757 -38.4528 813.571C-126.699 792.385 -207.367 747.208 -271.539 683.036L-201.946 613.443C-150.609 664.781 -86.0739 700.922 -15.4773 717.871C55.1193 734.82 129.028 731.916 198.077 709.481C267.126 687.045 328.626 645.952 375.778 590.745C419.502 539.551 449.308 478.07 462.467 412.222C463.278 407.294 464.162 402.384 465.12 397.493C465.165 397.214 465.21 396.936 465.254 396.657L465.284 396.662C481.63 313.974 518.968 236.757 573.845 172.505C632.784 103.495 709.659 52.1291 795.971 24.0849C882.282 -3.95944 974.668 -7.58928 1062.91 13.5967Z"/>
</mask>
<path fill-rule="evenodd" clip-rule="evenodd" d="M1062.91 13.5967C1151.16 34.7826 1231.83 79.959 1296 144.131L1226.41 213.724C1175.07 162.386 1110.53 126.245 1039.94 109.296C969.342 92.3475 895.433 95.2514 826.384 117.687C757.335 140.122 695.835 181.215 648.683 236.423C604.959 287.617 575.153 349.099 561.994 414.946C561.183 419.873 560.299 424.783 559.341 429.673C559.296 429.952 559.252 430.231 559.207 430.51L559.177 430.505C542.831 513.194 505.493 590.41 450.616 654.663C391.677 723.672 314.802 775.038 228.49 803.083C142.179 831.127 49.793 834.757 -38.4528 813.571C-126.699 792.385 -207.367 747.208 -271.539 683.036L-201.946 613.443C-150.609 664.781 -86.0739 700.922 -15.4773 717.871C55.1193 734.82 129.028 731.916 198.077 709.481C267.126 687.045 328.626 645.952 375.778 590.745C419.502 539.551 449.308 478.07 462.467 412.222C463.278 407.294 464.162 402.384 465.12 397.493C465.165 397.214 465.21 396.936 465.254 396.657L465.284 396.662C481.63 313.974 518.968 236.757 573.845 172.505C632.784 103.495 709.659 52.1291 795.971 24.0849C882.282 -3.95944 974.668 -7.58928 1062.91 13.5967Z" fill="#FF6600"/>
<path d="M1296 144.131L1310.14 158.273L1324.28 144.131L1310.14 129.989L1296 144.131ZM1226.41 213.724L1212.27 227.866L1226.41 242.008L1240.55 227.866L1226.41 213.724ZM1039.94 109.296L1035.27 128.744L1039.94 109.296ZM648.683 236.423L633.475 223.434L648.683 236.423ZM561.994 414.946L542.382 411.027L542.315 411.363L542.259 411.7L561.994 414.946ZM559.341 429.673L539.714 425.828L539.648 426.164L539.594 426.503L559.341 429.673ZM559.207 430.51L556.081 450.264L575.835 453.391L578.961 433.637L559.207 430.51ZM559.177 430.505L562.303 410.751L543.29 407.742L539.557 426.627L559.177 430.505ZM450.616 654.663L435.408 641.674V641.674L450.616 654.663ZM-38.4528 813.571L-33.7838 794.123H-33.7839L-38.4528 813.571ZM-271.539 683.036L-285.681 668.894L-299.823 683.036L-285.681 697.178L-271.539 683.036ZM-201.946 613.443L-187.804 599.301L-201.946 585.159L-216.088 599.301L-201.946 613.443ZM-15.4773 717.871L-20.1462 737.319H-20.1462L-15.4773 717.871ZM375.778 590.745L360.57 577.756L375.778 590.745ZM462.467 412.222L482.079 416.142L482.146 415.806L482.202 415.469L462.467 412.222ZM465.12 397.493L484.747 401.338L484.813 401.002L484.867 400.665L465.12 397.493ZM465.254 396.657L468.386 376.904L448.629 373.771L445.5 393.529L465.254 396.657ZM465.284 396.662L462.151 416.415L481.17 419.431L484.904 400.54L465.284 396.662ZM573.845 172.505L589.053 185.494L573.845 172.505ZM795.971 24.0849L789.791 5.06372L795.971 24.0849ZM1310.14 129.989C1243.36 63.2088 1159.41 16.1963 1067.58 -5.85074L1058.24 33.0441C1142.9 53.3689 1220.29 96.7093 1281.86 158.273L1310.14 129.989ZM1240.55 227.866L1310.14 158.273L1281.86 129.989L1212.27 199.582L1240.55 227.866ZM1035.27 128.744C1102.28 144.831 1163.54 179.136 1212.27 227.866L1240.55 199.582C1186.6 145.636 1118.79 107.659 1044.61 89.8489L1035.27 128.744ZM832.564 136.708C898.105 115.412 968.259 112.656 1035.27 128.744L1044.61 89.8489C970.424 72.0391 892.761 75.0905 820.204 98.6657L832.564 136.708ZM663.891 249.412C708.647 197.009 767.023 158.004 832.564 136.708L820.204 98.6657C747.646 122.241 683.022 165.422 633.475 223.434L663.891 249.412ZM581.606 418.866C594.096 356.363 622.388 298.005 663.891 249.412L633.475 223.434C587.529 277.229 556.209 341.834 542.382 411.027L581.606 418.866ZM578.968 433.518C579.965 428.429 580.885 423.32 581.729 418.193L542.259 411.7C541.482 416.427 540.633 421.137 539.714 425.828L578.968 433.518ZM578.961 433.637C579.003 433.375 579.045 433.111 579.088 432.843L539.594 426.503C539.547 426.793 539.5 427.087 539.453 427.384L578.961 433.637ZM556.051 450.26L556.081 450.264L562.334 410.756L562.303 410.751L556.051 450.26ZM465.824 667.652C522.932 600.788 561.787 520.433 578.797 434.384L539.557 426.627C523.875 505.954 488.055 580.033 435.408 641.674L465.824 667.652ZM234.67 822.104C324.49 792.92 404.49 739.466 465.824 667.652L435.408 641.674C378.864 707.878 305.113 757.157 222.31 784.061L234.67 822.104ZM-43.1217 833.018C48.7106 855.065 144.851 851.288 234.67 822.104L222.31 784.061C139.506 810.966 50.8754 814.448 -33.7838 794.123L-43.1217 833.018ZM-285.681 697.178C-218.901 763.959 -134.954 810.971 -43.1217 833.018L-33.7839 794.123C-118.443 773.798 -195.833 730.458 -257.397 668.894L-285.681 697.178ZM-216.088 599.301L-285.681 668.894L-257.397 697.178L-187.804 627.586L-216.088 599.301ZM-10.8084 698.424C-77.8185 682.336 -139.075 648.031 -187.804 599.301L-216.088 627.586C-162.143 681.531 -94.3293 719.509 -20.1462 737.319L-10.8084 698.424ZM191.897 690.459C126.355 711.755 56.2017 714.511 -10.8084 698.424L-20.1462 737.319C54.037 755.128 131.7 752.077 204.257 728.502L191.897 690.459ZM360.57 577.756C315.814 630.158 257.438 669.164 191.897 690.459L204.257 728.502C276.814 704.927 341.439 661.746 390.986 603.734L360.57 577.756ZM442.855 408.303C430.364 470.805 402.072 529.163 360.57 577.756L390.986 603.734C436.931 549.939 468.252 485.334 482.079 416.142L442.855 408.303ZM445.493 393.648C444.496 398.738 443.576 403.848 442.732 408.976L482.202 415.469C482.979 410.741 483.828 406.03 484.747 401.338L445.493 393.648ZM445.5 393.529C445.458 393.793 445.416 394.057 445.373 394.321L484.867 400.665C484.914 400.372 484.961 400.079 485.008 399.785L445.5 393.529ZM468.416 376.909L468.386 376.904L462.121 416.41L462.151 416.415L468.416 376.909ZM558.636 159.516C501.529 226.38 462.674 306.734 445.664 392.783L484.904 400.54C500.586 321.213 536.406 247.135 589.053 185.494L558.636 159.516ZM789.791 5.06372C699.971 34.2478 619.971 87.7018 558.636 159.516L589.053 185.494C645.597 119.289 719.348 70.0105 802.151 43.106L789.791 5.06372ZM1067.58 -5.85074C975.75 -27.8977 879.61 -24.1204 789.791 5.06372L802.151 43.106C884.955 16.2015 973.586 12.7192 1058.24 33.0441L1067.58 -5.85074Z" fill="#F5F5FA" mask="url(#path-1-inside-1)"/>
</svg>
