<svg width="295" height="432" viewBox="0 0 295 432" fill="none" xmlns="http://www.w3.org/2000/svg">
<g opacity="0.08">
<path fill-rule="evenodd" clip-rule="evenodd" d="M126.41 223.077C179.798 223.077 223.077 179.798 223.077 126.41C223.077 73.0228 179.798 29.7436 126.41 29.7436C73.0228 29.7436 29.7436 73.0228 29.7436 126.41C29.7436 179.798 73.0228 223.077 126.41 223.077ZM126.41 252.821C196.225 252.821 252.821 196.225 252.821 126.41C252.821 56.5959 196.225 0 126.41 0C56.5959 0 0 56.5959 0 126.41C0 196.225 56.5959 252.821 126.41 252.821Z" fill="#2D2D46"/>
<path d="M5.58716 332.191C27.8349 309.913 55.8016 294.229 86.3954 286.874C116.989 279.519 149.018 280.779 178.941 290.515C208.864 300.251 235.516 318.084 255.95 342.041C276.383 365.999 289.803 395.148 294.725 426.266L261.024 431.611C257.087 406.717 246.351 383.397 230.004 364.231C213.657 345.065 192.336 330.799 168.397 323.01C144.459 315.222 118.836 314.213 94.3607 320.097C69.8857 325.981 47.5123 338.528 29.7141 356.351L5.58716 332.191Z" fill="#2D2D46"/>
</g>
</svg>
